<svg width="48" height="48" xmlns="http://www.w3.org/2000/svg">
 <!-- Created with Method Draw - http://github.com/duopixel/Method-Draw/ -->
 <g>
  <title>background</title>
  <rect fill="#0072ff" id="canvas_background" height="50" width="50" y="-1" x="-1"/>
  <g display="none" overflow="visible" y="0" x="0" height="100%" width="100%" id="canvasGrid">
   <rect fill="url(#gridpattern)" stroke-width="0" y="0" x="0" height="100%" width="100%"/>
  </g>
 </g>
 <g>
  <title>Layer 1</title>
  <path stroke="#ffffff" transform="rotate(-89.86199188232422 23.97885894775391,24.235351562500004) " id="svg_15" d="m36.832772,33.632274l4.076548,-2.748465l-4.076548,-2.747412l-4.077421,-2.746379l0,3.055307c-1.069584,-0.002059 -2.842118,-0.002059 -3.344595,-0.002059c-1.484671,-0.041343 -2.459116,-0.583779 -3.47317,-1.555046c-1.511443,-1.449651 -2.801398,-4.058619 -4.3571,-6.572507c-0.79123,-1.250217 -1.672741,-2.490131 -2.846762,-3.487204c-1.162289,-1.001232 -2.680818,-1.695577 -4.368827,-1.682143l-7.31649,0l0,4.881081l7.31649,0c1.017365,0.021698 1.661233,0.409156 2.539429,1.370095c1.299253,1.428991 2.565982,4.160894 4.313073,6.749199c1.712122,2.563486 4.346704,5.151787 8.167907,5.176585l3.370046,0l0,3.055298l4.077421,-2.746351zm-17.246308,-18.485906c0.046249,0.038237 0.095154,0.071286 0.140284,0.110567c1.394405,1.184092 2.401363,2.636857 3.198351,3.900521c0.183206,0.295493 0.345616,0.579645 0.519527,0.869993l9.310725,0l0,3.056351l4.077421,-2.746393l4.076548,-2.747397l-4.076548,-2.748447l-4.077421,-2.749487l0,3.054291l-13.168887,0z" fill-opacity="null" stroke-opacity="null" stroke-width="1.5" fill="#ffffff"/>
 </g>
</svg>