<svg width="48" height="48" xmlns="http://www.w3.org/2000/svg">
 <!-- Created with Method Draw - http://github.com/duopixel/Method-Draw/ -->
 <g>
  <title>background</title>
  <rect fill="#2899c0" id="canvas_background" height="50" width="50" y="-1" x="-1"/>
  <g display="none" overflow="visible" y="0" x="0" height="100%" width="100%" id="canvasGrid">
   <rect fill="url(#gridpattern)" stroke-width="0" y="0" x="0" height="100%" width="100%"/>
  </g>
 </g>
 <g>
  <title>Layer 1</title>
  <path id="svg_5" d="m35.72767,12.26518" opacity="0.5" fill-opacity="null" stroke-opacity="null" stroke-width="1.5" stroke="#ffffff" fill="#ffffff"/>
  <path id="svg_8" d="m13.170721,19.835844c2.556452,4.404243 3.055535,5.74175 2.21028,5.923388c-1.651149,0.354826 -1.319347,2.38413 0.991711,6.065322c2.898316,4.61662 8.575228,7.451645 13.907598,6.945395c2.069718,-0.196499 4.409626,-0.602023 5.199796,-0.901177c0.790165,-0.299159 0.305289,0.25814 -1.077505,1.238432c-6.917531,4.903978 -15.460988,4.562375 -22.276811,-0.89071c-2.717596,-2.174255 -6.456587,-8.526825 -6.456587,-10.969797c0,-0.692077 -0.616431,-1.362673 -1.369845,-1.490205c-1.232121,-0.208565 -1.066653,-0.757723 1.645805,-5.462112c1.658609,-2.876632 3.219915,-5.436581 3.469571,-5.688775c0.249661,-0.252193 1.939852,2.101412 3.755986,5.230237l-0.000001,0.000001zm21.974905,8.490838c-2.556453,-4.404242 -3.055535,-5.741754 -2.210285,-5.923388c1.651149,-0.35482 1.319349,-2.384129 -0.991707,-6.065322c-2.898317,-4.616621 -8.575235,-7.451646 -13.907602,-6.945398c-2.069718,0.196496 -4.409622,0.602028 -5.19979,0.901184c-0.79017,0.299152 -0.305292,-0.258144 1.077502,-1.238435c6.917533,-4.90398 15.46099,-4.56238 22.276812,0.890713c2.717598,2.174248 6.456586,8.526822 6.456586,10.969789c0,0.692082 0.616436,1.362673 1.369842,1.490205c1.232126,0.208569 1.066655,0.757723 -1.645799,5.462115c-1.658608,2.876628 -3.219918,5.436579 -3.469571,5.688775c-0.249662,0.252193 -1.939852,-2.101409 -3.755986,-5.230236l0,-0.000001z" fill-opacity="null" stroke-opacity="null" stroke-width="1.5" stroke="#ffffff" fill="#ffffff"/>
 </g>
</svg>