<svg width="48" height="48" xmlns="http://www.w3.org/2000/svg">
 <!-- Created with Method Draw - http://github.com/duopixel/Method-Draw/ -->
 <g>
  <title>background</title>
  <rect fill="#0d773e" id="canvas_background" height="50" width="50" y="-1" x="-1"/>
  <g display="none" overflow="visible" y="0" x="0" height="100%" width="100%" id="canvasGrid">
   <rect fill="url(#gridpattern)" stroke-width="0" y="0" x="0" height="100%" width="100%"/>
  </g>
 </g>
 <g>
  <title>Layer 1</title>
  <path id="svg_5" d="m35.72767,12.26518" opacity="0.5" fill-opacity="null" stroke-opacity="null" stroke-width="1.5" stroke="#ffffff" fill="#ffffff"/>
  <path id="svg_11" d="m26.607942,30.070444l-0.992022,-3.467914c0.290721,-0.254713 0.563591,-0.527255 0.821159,-0.818901l3.469525,0.990833c0.365951,-0.53235 0.680899,-1.097812 0.962694,-1.684925l-2.582061,-2.496185c0.123684,-0.366786 0.230792,-0.739941 0.307297,-1.124557l3.479726,-0.871118c0.025502,-0.320938 0.049729,-0.64315 0.049729,-0.971729s-0.025502,-0.649518 -0.049729,-0.970456l-3.479726,-0.871118c-0.077781,-0.384616 -0.184888,-0.75777 -0.307297,-1.124557l2.583336,-2.496185c-0.28307,-0.585839 -0.598018,-1.152575 -0.96397,-1.684925l-3.469525,0.989559c-0.256293,-0.290373 -0.530438,-0.562915 -0.821159,-0.818901l0.992022,-3.46664c-0.532988,-0.364239 -1.100404,-0.680083 -1.688222,-0.961541l-2.49918,2.58024c-0.365951,-0.123536 -0.740828,-0.229241 -1.125906,-0.306929l-0.870888,-3.476829c-0.322598,-0.024198 -0.643921,-0.049669 -0.972895,-0.049669s-0.650297,0.025471 -0.97162,0.049669l-0.872163,3.476829c-0.385078,0.077687 -0.75868,0.183393 -1.125906,0.306929l-2.49918,-2.58024c-0.586542,0.285278 -1.152683,0.599849 -1.685672,0.965361l0.992022,3.46664c-0.290721,0.254713 -0.564866,0.528529 -0.819884,0.817628l-3.470801,-0.990833c-0.365951,0.53235 -0.680899,1.099085 -0.962694,1.686198l2.583336,2.496185c-0.122409,0.366786 -0.229517,0.739941 -0.307297,1.124557l-3.481001,0.871118c-0.024227,0.320938 -0.049729,0.64315 -0.049729,0.970456s0.025502,0.649518 0.049729,0.971729l3.481001,0.871118c0.077781,0.384616 0.184888,0.75777 0.307297,1.124557l-2.583336,2.496185c0.281795,0.585839 0.596743,1.152575 0.962694,1.684925l3.470801,-0.990833c0.255018,0.291646 0.529163,0.562915 0.819884,0.818901l-0.992022,3.467914c0.532988,0.364239 1.100404,0.678809 1.686947,0.961541l2.49918,-2.58024c0.367227,0.123536 0.740828,0.230515 1.125906,0.306929l0.872163,3.475555c0.321323,0.025471 0.643921,0.049669 0.972895,0.049669s0.650297,-0.025471 0.972895,-0.049669l0.870888,-3.475555c0.385078,-0.077687 0.759955,-0.184667 1.125906,-0.306929l2.49918,2.58024c0.585267,-0.285278 1.152683,-0.599849 1.685672,-0.964088zm-7.155817,-6.114379c-2.393348,0 -4.334038,-1.938364 -4.334038,-4.328843s1.94069,-4.32757 4.334038,-4.32757s4.332763,1.93709 4.332763,4.32757s-1.939415,4.328843 -4.332763,4.328843zm19.753726,9.04867c0.024227,-0.696639 -0.076506,-1.406014 -0.293271,-2.106474l1.586214,-2.258028c-0.239717,-0.445747 -0.510037,-0.86857 -0.817334,-1.253187l-2.705745,0.566736c-0.545739,-0.463577 -1.166709,-0.825269 -1.831032,-1.083803l-0.779081,-2.647739c-0.492186,-0.086602 -0.990747,-0.133724 -1.495683,-0.134998l-1.24194,2.465619c-0.355751,0.068772 -0.711501,0.163016 -1.060877,0.29674c-0.327699,0.124809 -0.633721,0.280184 -0.926992,0.449568l-2.557835,-1.043049c-0.378702,0.333674 -0.724252,0.694092 -1.03665,1.085076l1.156508,2.506373c-0.330249,0.630414 -0.557215,1.309224 -0.661773,2.018599l-2.411199,1.349978c0.024227,0.494143 0.096907,0.988285 0.209115,1.483702l2.682794,0.66098c0.294546,0.667347 0.689825,1.264649 1.167984,1.774074l-0.448832,2.722879c0.408029,0.29292 0.841561,0.545085 1.291668,0.764138l2.186783,-1.681104c0.683449,0.179572 1.398776,0.248345 2.119203,0.191035l1.851434,2.046617c0.255018,-0.072593 0.508762,-0.150281 0.759955,-0.245798c0.223141,-0.084055 0.433531,-0.183393 0.643921,-0.284005l0.047178,-2.757265c0.580167,-0.431738 1.074903,-0.951352 1.468906,-1.535918l2.755474,-0.170658c0.193814,-0.457209 0.355751,-0.932249 0.469234,-1.420024l-2.128129,-1.760065zm-5.308208,2.556042c-1.531386,0.583292 -3.245109,-0.183393 -3.830376,-1.712943s0.182338,-3.242493 1.713724,-3.827059c1.531386,-0.583292 3.247659,0.183393 3.832927,1.712943c0.583992,1.52955 -0.184888,3.242493 -1.716274,3.827059z" fill-opacity="null" stroke-opacity="null" stroke-width="1.5" stroke="#ffffff" fill="#ffffff"/>
 </g>
</svg>